<svg width="40" height="40" viewBox="0 0 40 40" fill="none" xmlns="http://www.w3.org/2000/svg">
<rect width="40" height="40" rx="6" fill="#28C76F" fill-opacity="0.16"/>
<path d="M13 15H14C15.1046 15 16 14.1046 16 13C16 12.4477 16.4477 12 17 12H23C23.5523 12 24 12.4477 24 13C24 14.1046 24.8954 15 26 15H27C28.1046 15 29 15.8954 29 17V26C29 27.1046 28.1046 28 27 28H13C11.8954 28 11 27.1046 11 26V17C11 15.8954 11.8954 15 13 15" stroke="#28C76F" stroke-width="1.5" stroke-linecap="round" stroke-linejoin="round"/>
<circle cx="20" cy="21" r="3" stroke="#28C76F" stroke-width="1.5" stroke-linecap="round" stroke-linejoin="round"/>
</svg>
