<svg width="25" height="97" viewBox="0 0 25 97" fill="none" xmlns="http://www.w3.org/2000/svg">
<line x1="13" y1="0.5" x2="13" y2="31.5" stroke="#4C4E64" stroke-opacity="0.12"/>
<circle cx="12.5" cy="48.5" r="12" fill="#6D788D"/>
<circle cx="12.5" cy="48.5" r="12" fill="white" fill-opacity="0.88"/>
<path d="M6.1875 44.5L8.41406 51.0156H8.50391L10.7305 44.5H12.0352L9.15625 52.5H7.76172L4.88281 44.5H6.1875ZM17.5537 46.6016C17.512 46.2318 17.3402 45.9453 17.0381 45.7422C16.736 45.5365 16.3558 45.4336 15.8975 45.4336C15.5693 45.4336 15.2855 45.4857 15.0459 45.5898C14.8063 45.6914 14.6201 45.832 14.4873 46.0117C14.3571 46.1888 14.292 46.3906 14.292 46.6172C14.292 46.8073 14.3363 46.9714 14.4248 47.1094C14.516 47.2474 14.6344 47.3633 14.7803 47.457C14.9287 47.5482 15.0876 47.625 15.2568 47.6875C15.4261 47.7474 15.5889 47.7969 15.7451 47.8359L16.5264 48.0391C16.7816 48.1016 17.0433 48.1862 17.3115 48.293C17.5798 48.3997 17.8285 48.5404 18.0576 48.7148C18.2868 48.8893 18.4717 49.1055 18.6123 49.3633C18.7555 49.6211 18.8271 49.9297 18.8271 50.2891C18.8271 50.7422 18.71 51.1445 18.4756 51.4961C18.2438 51.8477 17.9066 52.125 17.4639 52.3281C17.0238 52.5313 16.4912 52.6328 15.8662 52.6328C15.2673 52.6328 14.749 52.5378 14.3115 52.3477C13.874 52.1576 13.5316 51.888 13.2842 51.5391C13.0368 51.1875 12.9001 50.7708 12.874 50.2891H14.085C14.1084 50.5781 14.2021 50.819 14.3662 51.0117C14.5329 51.2018 14.7451 51.3437 15.0029 51.4375C15.2633 51.5286 15.5485 51.5742 15.8584 51.5742C16.1995 51.5742 16.5029 51.5208 16.7686 51.4141C17.0368 51.3047 17.2477 51.1536 17.4014 50.9609C17.555 50.7656 17.6318 50.5378 17.6318 50.2773C17.6318 50.0404 17.5641 49.8464 17.4287 49.6953C17.2959 49.5443 17.1149 49.4193 16.8857 49.3203C16.6592 49.2214 16.4027 49.1341 16.1162 49.0586L15.1709 48.8008C14.5303 48.6263 14.0225 48.3698 13.6475 48.0312C13.2751 47.6927 13.0889 47.2448 13.0889 46.6875C13.0889 46.2266 13.2139 45.8242 13.4639 45.4805C13.7139 45.1367 14.0524 44.8698 14.4795 44.6797C14.9066 44.487 15.3883 44.3906 15.9248 44.3906C16.4665 44.3906 16.9443 44.4857 17.3584 44.6758C17.7751 44.8659 18.1032 45.1276 18.3428 45.4609C18.5824 45.7917 18.7074 46.1719 18.7178 46.6016H17.5537Z" fill="#4C4E64" fill-opacity="0.68"/>
<line x1="13" y1="65.5" x2="13" y2="96.5" stroke="#4C4E64" stroke-opacity="0.12"/>
</svg>
