<svg width="25" height="25" viewBox="0 0 25 25" fill="none" xmlns="http://www.w3.org/2000/svg">
<path d="M4.6875 22.9166C4.27083 22.9166 3.90625 22.7604 3.59375 22.4479C3.28125 22.1354 3.125 21.7708 3.125 21.3541V5.20831C3.125 4.79165 3.28125 4.42706 3.59375 4.11456C3.90625 3.80206 4.27083 3.64581 4.6875 3.64581H6.38021V2.08331H8.07292V3.64581H16.9271V2.08331H18.6198V3.64581H20.3125C20.7292 3.64581 21.0937 3.80206 21.4062 4.11456C21.7187 4.42706 21.875 4.79165 21.875 5.20831V21.3541C21.875 21.7708 21.7187 22.1354 21.4062 22.4479C21.0937 22.7604 20.7292 22.9166 20.3125 22.9166H4.6875ZM4.6875 21.3541H20.3125V10.1562H4.6875V21.3541ZM4.6875 8.59373H20.3125V5.20831H4.6875V8.59373ZM4.6875 8.59373V5.20831V8.59373ZM12.5 14.5833C12.2049 14.5833 11.9575 14.4835 11.7578 14.2838C11.5582 14.0842 11.4583 13.8368 11.4583 13.5416C11.4583 13.2465 11.5582 12.9991 11.7578 12.7995C11.9575 12.5998 12.2049 12.5 12.5 12.5C12.7951 12.5 13.0425 12.5998 13.2422 12.7995C13.4418 12.9991 13.5417 13.2465 13.5417 13.5416C13.5417 13.8368 13.4418 14.0842 13.2422 14.2838C13.0425 14.4835 12.7951 14.5833 12.5 14.5833ZM8.33333 14.5833C8.03819 14.5833 7.7908 14.4835 7.59115 14.2838C7.39149 14.0842 7.29167 13.8368 7.29167 13.5416C7.29167 13.2465 7.39149 12.9991 7.59115 12.7995C7.7908 12.5998 8.03819 12.5 8.33333 12.5C8.62847 12.5 8.87587 12.5998 9.07552 12.7995C9.27517 12.9991 9.375 13.2465 9.375 13.5416C9.375 13.8368 9.27517 14.0842 9.07552 14.2838C8.87587 14.4835 8.62847 14.5833 8.33333 14.5833ZM16.6667 14.5833C16.3715 14.5833 16.1241 14.4835 15.9245 14.2838C15.7248 14.0842 15.625 13.8368 15.625 13.5416C15.625 13.2465 15.7248 12.9991 15.9245 12.7995C16.1241 12.5998 16.3715 12.5 16.6667 12.5C16.9618 12.5 17.2092 12.5998 17.4089 12.7995C17.6085 12.9991 17.7083 13.2465 17.7083 13.5416C17.7083 13.8368 17.6085 14.0842 17.4089 14.2838C17.2092 14.4835 16.9618 14.5833 16.6667 14.5833ZM12.5 18.75C12.2049 18.75 11.9575 18.6502 11.7578 18.4505C11.5582 18.2508 11.4583 18.0035 11.4583 17.7083C11.4583 17.4132 11.5582 17.1658 11.7578 16.9661C11.9575 16.7665 12.2049 16.6666 12.5 16.6666C12.7951 16.6666 13.0425 16.7665 13.2422 16.9661C13.4418 17.1658 13.5417 17.4132 13.5417 17.7083C13.5417 18.0035 13.4418 18.2508 13.2422 18.4505C13.0425 18.6502 12.7951 18.75 12.5 18.75ZM8.33333 18.75C8.03819 18.75 7.7908 18.6502 7.59115 18.4505C7.39149 18.2508 7.29167 18.0035 7.29167 17.7083C7.29167 17.4132 7.39149 17.1658 7.59115 16.9661C7.7908 16.7665 8.03819 16.6666 8.33333 16.6666C8.62847 16.6666 8.87587 16.7665 9.07552 16.9661C9.27517 17.1658 9.375 17.4132 9.375 17.7083C9.375 18.0035 9.27517 18.2508 9.07552 18.4505C8.87587 18.6502 8.62847 18.75 8.33333 18.75ZM16.6667 18.75C16.3715 18.75 16.1241 18.6502 15.9245 18.4505C15.7248 18.2508 15.625 18.0035 15.625 17.7083C15.625 17.4132 15.7248 17.1658 15.9245 16.9661C16.1241 16.7665 16.3715 16.6666 16.6667 16.6666C16.9618 16.6666 17.2092 16.7665 17.4089 16.9661C17.6085 17.1658 17.7083 17.4132 17.7083 17.7083C17.7083 18.0035 17.6085 18.2508 17.4089 18.4505C17.2092 18.6502 16.9618 18.75 16.6667 18.75Z" fill="#C2478A"/>
</svg>
