<svg width="20" height="20" viewBox="0 0 20 20" fill="none" xmlns="http://www.w3.org/2000/svg">
<path d="M20 10C20 15.5228 15.5228 20 10 20C4.47715 20 0 15.5228 0 10C0 4.47715 4.47715 0 10 0C15.5228 0 20 4.47715 20 10Z" fill="#E5E0FF"/>
<path d="M14.5999 7.49797C14.533 7.33406 14.3993 7.19908 14.2369 7.13158C14.1605 7.10266 14.0746 7.08337 13.9886 7.08337H12.2122C11.8397 7.08337 11.5437 7.38227 11.5437 7.75831C11.5437 8.13434 11.8397 8.43324 12.2122 8.43324H12.3841L10.3689 10.4677L9.39477 9.00211C9.28016 8.8382 9.10825 8.72249 8.90769 8.70321C8.69758 8.68393 8.51612 8.75142 8.37286 8.89605L5.52677 11.7693C5.26891 12.0297 5.26891 12.4539 5.52677 12.7239C5.66048 12.8589 5.82284 12.9167 5.99475 12.9167C6.16666 12.9167 6.33858 12.8492 6.46273 12.7239L8.73578 10.4291L9.70994 11.8947C9.82455 12.0586 9.99646 12.1743 10.197 12.1936C10.4071 12.2129 10.5886 12.1454 10.7319 12.0007L13.3296 9.37814V9.55169C13.3296 9.92773 13.6257 10.2266 13.9982 10.2266C14.3706 10.2266 14.6667 9.92773 14.6667 9.55169V7.74866C14.6476 7.66189 14.6381 7.57511 14.5999 7.49797Z" fill="#2E2947"/>
</svg>
