<svg width="25" height="25" viewBox="0 0 25 25" fill="none" xmlns="http://www.w3.org/2000/svg">
<path d="M3.64551 22.9166C3.22884 22.9166 2.86426 22.7603 2.55176 22.4478C2.23926 22.1353 2.08301 21.7708 2.08301 21.3541V8.85409C2.08301 8.43742 2.23926 8.07284 2.55176 7.76034C2.86426 7.44784 3.22884 7.29159 3.64551 7.29159H9.81738V3.64575C9.81738 3.22909 9.97363 2.8645 10.2861 2.552C10.5986 2.2395 10.9632 2.08325 11.3799 2.08325H13.6455C14.0622 2.08325 14.4268 2.2395 14.7393 2.552C15.0518 2.8645 15.208 3.22909 15.208 3.64575V7.29159H21.3538C21.7705 7.29159 22.1351 7.44784 22.4476 7.76034C22.7601 8.07284 22.9163 8.43742 22.9163 8.85409V21.3541C22.9163 21.7708 22.7601 22.1353 22.4476 22.4478C22.1351 22.7603 21.7705 22.9166 21.3538 22.9166H3.64551ZM3.64551 21.3541H21.3538V8.85409H15.208C15.208 9.3402 15.0474 9.72214 14.7262 9.99992C14.4051 10.2777 14.0014 10.4166 13.5153 10.4166H11.484C11.0153 10.4166 10.6203 10.2777 10.2992 9.99992C9.97797 9.72214 9.81738 9.3402 9.81738 8.85409H3.64551V21.3541ZM6.04134 18.5676H12.2653V18.203C12.2653 17.8905 12.1872 17.6128 12.0309 17.3697C11.8747 17.1267 11.675 16.9617 11.432 16.8749C10.8764 16.6839 10.4424 16.5581 10.1299 16.4973C9.81738 16.4366 9.51356 16.4062 9.21843 16.4062C8.88856 16.4062 8.537 16.4452 8.16374 16.5234C7.79047 16.6015 7.36947 16.7187 6.90072 16.8749C6.6403 16.9617 6.43197 17.1267 6.27572 17.3697C6.11947 17.6128 6.04134 17.8905 6.04134 18.203V18.5676ZM14.7913 16.8228H19.2184V15.5208H14.7913V16.8228ZM9.21843 15.5208C9.61773 15.5208 9.95193 15.3819 10.221 15.1041C10.4901 14.8263 10.6247 14.4964 10.6247 14.1145C10.6247 13.7152 10.4901 13.381 10.221 13.1119C9.95193 12.8428 9.61773 12.7083 9.21843 12.7083C8.83648 12.7083 8.50662 12.8428 8.22884 13.1119C7.95106 13.381 7.81217 13.7152 7.81217 14.1145C7.81217 14.4964 7.95106 14.8263 8.22884 15.1041C8.50662 15.3819 8.83648 15.5208 9.21843 15.5208ZM14.7913 13.8801H19.2184V12.578H14.7913V13.8801ZM11.3799 8.85409H13.6455V3.64575H11.3799V8.85409Z" fill="#C2478A"/>
</svg>
