<svg width="14" height="22" viewBox="0 0 14 22" fill="none" xmlns="http://www.w3.org/2000/svg">
<path d="M6.04545 22V19.4118H3.5V17.4706H6.04545V14.1706C4.30606 13.9333 2.86364 13.1407 1.71818 11.7926C0.572727 10.4446 0 8.87549 0 7.08529C0 5.12255 0.684091 3.45098 2.05227 2.07059C3.42045 0.690196 5.0697 0 7 0C8.9303 0 10.5795 0.690196 11.9477 2.07059C13.3159 3.45098 14 5.12255 14 7.08529C14 8.87549 13.4273 10.4446 12.2818 11.7926C11.1364 13.1407 9.69394 13.9333 7.95455 14.1706V17.4706H10.5V19.4118H7.95455V22H6.04545ZM7 12.2941C8.4 12.2941 9.59848 11.7873 10.5955 10.7735C11.5924 9.7598 12.0909 8.54118 12.0909 7.11765C12.0909 5.69412 11.5924 4.47549 10.5955 3.46177C9.59848 2.44804 8.4 1.94118 7 1.94118C5.6 1.94118 4.40152 2.44804 3.40455 3.46177C2.40758 4.47549 1.90909 5.69412 1.90909 7.11765C1.90909 8.54118 2.40758 9.7598 3.40455 10.7735C4.40152 11.7873 5.6 12.2941 7 12.2941Z" fill="#C2478A"/>
</svg>
